<svg width="12" height="13" viewBox="0 0 12 13" fill="none" xmlns="http://www.w3.org/2000/svg">
<g clip-path="url(#clip0_112_783)">
<path d="M5.9834 4.7056C7.22941 4.7056 8.2395 3.65222 8.2395 2.3528C8.2395 1.05339 7.22941 0 5.9834 0C4.73739 0 3.72729 1.05339 3.72729 2.3528C3.72729 3.65222 4.73739 4.7056 5.9834 4.7056Z" fill="#0B4915"/>
<path d="M8.97877 5.90466C8.6252 5.71778 7.53765 5.30261 7.17442 5.32444C6.94962 5.33786 6.26233 6.5263 5.99567 6.55371C5.72419 6.58113 5.08465 5.49957 4.81209 5.33339C2.02751 5.68925 -0.197479 8.39007 0.0139133 11.3371C0.107806 12.6514 1.28441 13.2093 2.43044 12.9295V9.65628C2.43044 9.31217 3.07427 9.37036 3.07427 9.60032V12.9015L8.85912 12.92C8.97501 12.8417 8.86449 11.3757 8.8661 11.1082C8.86717 10.9488 8.91922 10.8151 8.92458 10.6657C8.93424 10.3741 8.82532 9.64509 8.99969 9.45709C9.14027 9.30546 9.46862 9.38715 9.51262 9.54437V12.9015C9.51262 12.9077 9.58719 12.9855 9.5931 12.9855H10.4515C11.2005 12.9855 11.8487 12.2066 11.9565 11.4775C12.2763 9.32392 10.7853 6.86089 8.97823 5.90466H8.97877Z" fill="#0B4915"/>
</g>
<defs>
<clipPath id="clip0_112_783">
<rect width="12" height="13" fill="white"/>
</clipPath>
</defs>
</svg>
