<svg width="17" height="15" viewBox="0 0 17 15" fill="none" xmlns="http://www.w3.org/2000/svg">
<g clip-path="url(#clip0_112_759)">
<path d="M6.69475 8.82954H15.7224C15.7425 8.82954 15.8965 9.00287 15.9367 9.04675L15.9734 14.0808C16.6244 13.9499 17.4423 14.4397 16.7136 15L0.147385 14.9799C-0.307953 14.3059 0.371817 13.9168 1.0113 14.152V5.34116C1.0113 5.25198 1.20624 5.04267 1.33069 5.08511C2.86934 5.24838 4.8137 4.883 6.302 5.08583C6.45809 5.10741 6.69404 5.2678 6.69404 5.41309V8.82954H6.69475ZM2.77439 6.7437C2.53341 6.7437 2.5442 8.41956 2.63196 8.61232C2.64923 8.64972 2.83122 8.82954 2.84632 8.82954H4.64466C4.89283 8.82954 4.86261 7.17382 4.79212 6.95588C4.77485 6.90194 4.67631 6.7437 4.64466 6.7437H2.77439ZM2.77439 10.0523C2.60031 10.0523 2.67224 11.1204 2.67009 11.3138C2.66865 11.4303 2.51543 12.0662 2.77439 12.0662H4.64466C4.8173 12.0662 4.7504 10.9312 4.74896 10.7327C4.74896 10.6291 4.88851 10.0523 4.64466 10.0523H2.77439ZM8.13342 11.9583C8.20463 11.7224 8.13342 10.5852 8.13342 10.2321C8.13342 10.2198 8.02264 10.1055 7.98812 10.0897C7.85144 10.0257 6.23079 10.0213 6.11785 10.0875C5.91428 10.2076 5.91644 11.8036 6.04016 11.9648C6.1085 12.0547 6.33365 12.1158 6.44874 12.1316C6.70914 12.1676 8.05717 12.2086 8.1327 11.9583H8.13342ZM9.46419 10.0523C9.42103 10.0997 9.34766 10.1415 9.32176 10.1976C9.2563 10.3371 9.2527 11.7835 9.32032 11.923C9.43398 12.1568 10.136 12.0568 10.3986 12.0676C10.6906 12.0791 11.346 12.3107 11.4409 11.8137C11.479 11.6145 11.4783 10.5061 11.4409 10.3069C11.4258 10.2278 11.3165 10.053 11.2632 10.053H9.46491L9.46419 10.0523ZM12.7731 12.0662C13.0565 12.1453 14.2442 12.0662 14.6434 12.0662C14.6513 12.0662 14.7513 11.9662 14.7513 11.9583V10.2321C14.7513 10.2198 14.6405 10.1055 14.606 10.0897C14.4405 10.0127 12.817 10.0206 12.694 10.1177C12.5516 10.2299 12.5437 11.7375 12.63 11.9216C12.6458 11.9547 12.7487 12.0597 12.7724 12.0669L12.7731 12.0662Z" fill="#0B4915"/>
<path d="M3.79877 0L10.362 0.0208583C10.7331 0.25965 10.6389 0.79837 10.1872 0.850156C8.28957 0.976744 6.15027 0.668904 4.28216 0.843682C2.83846 0.978902 3.71964 3.1122 3.44342 4.03357C3.33912 4.38312 2.67373 4.38024 2.59533 3.97387C2.52339 3.59914 2.54353 1.58523 2.61115 1.18748C2.69963 0.665308 3.27366 0.088468 3.79805 0.000719252L3.79877 0Z" fill="#0B4915"/>
<path d="M8.0443 1.79812C8.22989 1.9844 8.14933 2.47565 7.86663 2.55693C7.3113 2.71588 5.87408 2.37136 5.45183 2.71229C5.02958 3.05321 5.52376 4.02852 5.02095 4.24429C4.22033 4.58738 4.33614 3.21001 4.41023 2.76911C4.49727 2.24765 4.97635 1.77222 5.5065 1.70749C6.03665 1.64276 7.14802 1.6629 7.66953 1.70605C7.78103 1.7154 7.9659 1.71828 8.04502 1.79812H8.0443Z" fill="#0B4915"/>
</g>
<defs>
<clipPath id="clip0_112_759">
<rect width="17" height="15" fill="white"/>
</clipPath>
</defs>
</svg>
