<svg width="17" height="11" viewBox="0 0 17 11" fill="none" xmlns="http://www.w3.org/2000/svg">
<g clip-path="url(#clip0_112_774)">
<path d="M15.3076 9.42186C15.3076 10.2934 14.6116 11.0001 13.753 11.0001C12.8945 11.0001 12.1985 10.2934 12.1985 9.42186C12.1985 8.55028 12.8945 7.84363 13.753 7.84363C14.6116 7.84363 15.3076 8.55028 15.3076 9.42186ZM14.4813 9.41617C14.4813 9.00953 14.1564 8.67966 13.7558 8.67966C13.3553 8.67966 13.0304 9.00953 13.0304 9.41617C13.0304 9.82282 13.3553 10.1527 13.7558 10.1527C14.1564 10.1527 14.4813 9.82282 14.4813 9.41617Z" fill="#0B4915"/>
<path d="M16.9314 5.12011C16.8621 4.80802 15.5932 2.80182 15.3355 2.43925C15.2767 2.35678 15.2417 2.18048 15.1254 2.08379C15.0652 2.03403 15.0785 2.02763 14.9854 2.0127C14.5799 1.94658 13.8244 2.00772 13.3748 2.0127C13.0079 2.01697 12.1739 1.94303 11.884 2.02763C11.5668 2.12005 11.6361 2.48048 11.6242 2.72362C11.6151 2.91201 11.6277 3.10396 11.6242 3.29235C11.6032 4.40138 11.6109 5.52391 11.6242 6.63365C11.6928 6.65142 11.739 6.62086 11.7733 6.57038C11.7383 6.62086 11.6921 6.65142 11.6242 6.63365C11.6284 6.98058 11.4533 8.2261 12.0429 7.94956C12.0779 7.93321 12.5674 7.4704 12.6045 7.41566C12.6185 7.39575 12.6297 7.37372 12.6402 7.35168C12.6297 7.37372 12.6185 7.39504 12.6045 7.41566C13.6437 6.9102 14.8243 7.07229 15.5337 8.03202C15.8481 8.45786 15.8264 8.91854 16.4916 8.91427C16.8803 8.91143 16.9202 8.80692 16.9496 8.44933C16.9986 7.85572 17.042 5.6142 16.9321 5.12011H16.9314ZM14.8173 2.52029C14.8551 2.50821 14.8965 2.50465 14.9406 2.50394C14.9735 2.50394 15.0071 2.50465 15.0414 2.50536C15.0071 2.50465 14.9735 2.50323 14.9406 2.50394C14.8972 2.50394 14.8551 2.50821 14.8173 2.52029C14.8026 2.52527 14.79 2.53167 14.7788 2.53949C14.79 2.53167 14.8026 2.52456 14.8173 2.52029ZM15.3257 2.44565C15.3145 2.45347 15.3026 2.46058 15.2907 2.46697C15.3026 2.46058 15.3145 2.45418 15.3257 2.44565ZM14.7074 2.71935C14.7074 2.71935 14.7067 2.7229 14.7053 2.7229C14.7053 2.7229 14.7067 2.72077 14.7074 2.71935ZM11.8413 4.42981C11.8315 4.46607 11.8258 4.50019 11.8251 4.5329C11.8258 4.50019 11.8315 4.46536 11.8413 4.42981ZM11.8777 4.70209C11.8966 4.72484 11.9211 4.74404 11.9512 4.75897C11.9211 4.74333 11.8966 4.72413 11.8777 4.70209ZM12.1038 4.79736C12.0576 4.7938 12.017 4.78527 11.9834 4.77247C12.0177 4.78527 12.0576 4.7938 12.1038 4.79736ZM11.828 3.26107C11.8567 3.24472 11.8861 3.22552 11.9155 3.20419C11.8861 3.22552 11.856 3.24472 11.828 3.26107ZM11.8062 6.50995C11.8006 6.52275 11.7943 6.53555 11.7873 6.54763C11.7936 6.53555 11.7999 6.52346 11.8062 6.50995ZM12.5023 6.52559C12.461 6.46517 12.4148 6.40971 12.365 6.36279C12.2404 6.24478 12.0926 6.17724 11.947 6.20142C12.0933 6.17724 12.2404 6.24478 12.365 6.36279C12.4148 6.40971 12.461 6.46517 12.5023 6.52559C12.5226 6.55545 12.5422 6.58744 12.5597 6.62014C12.5422 6.58744 12.5226 6.55616 12.5023 6.52559ZM12.6872 7.18888C12.683 7.22229 12.676 7.25428 12.6669 7.28485C12.6767 7.25357 12.683 7.22158 12.6872 7.18888ZM12.4645 4.99855V2.8658H14.7053L15.8957 4.99855H12.4645Z" fill="#0B4915"/>
<path d="M-0.000276311 0.342124C0.036837 0.135247 0.273522 0.0840614 0.452086 0.0904597C3.66064 0.312976 7.23682 -0.195329 10.402 0.0904597C10.626 0.110365 10.8606 0.128138 10.8578 0.409661V8.45083C10.8984 9.04942 9.97971 8.81055 9.55535 8.83472C8.36212 8.90226 6.44064 9.06506 5.29292 8.90226C4.77124 8.82833 4.76703 8.39467 4.47923 8.02215C3.5444 6.81075 1.61941 6.81715 0.810615 8.13376C0.653758 8.38898 0.60334 8.83757 0.29663 8.89444C0.234308 8.90582 -0.000976562 8.85321 -0.000976562 8.83828V0.342124H-0.000276311Z" fill="#0B4915"/>
<path d="M4.25745 9.4176C4.25745 10.287 3.5635 10.9916 2.70709 10.9916C1.85069 10.9916 1.15674 10.287 1.15674 9.4176C1.15674 8.54815 1.85069 7.84363 2.70709 7.84363C3.5635 7.84363 4.25745 8.54815 4.25745 9.4176ZM3.42905 9.41546C3.42905 9.00953 3.10484 8.68109 2.70569 8.68109C2.30655 8.68109 1.98233 9.01024 1.98233 9.41546C1.98233 9.82068 2.30655 10.1498 2.70569 10.1498C3.10484 10.1498 3.42905 9.82068 3.42905 9.41546Z" fill="#0B4915"/>
</g>
<defs>
<clipPath id="clip0_112_774">
<rect width="17" height="11" fill="white"/>
</clipPath>
</defs>
</svg>
