<svg width="17" height="16" viewBox="0 0 17 16" fill="none" xmlns="http://www.w3.org/2000/svg">
<g clip-path="url(#clip0_112_765)">
<path d="M8.25465 0.0227259C9.49838 -0.233302 10.4446 1.7745 10.6899 2.71705C11.0636 4.1518 10.8742 5.73833 10.1268 7.02911C9.25529 8.53336 8.21329 8.91421 7.098 7.36244C5.9399 5.75109 5.86008 3.39861 6.71632 1.63833C6.97102 1.11492 7.64513 0.148258 8.25538 0.0227259H8.25465Z" fill="#0B4915"/>
<path d="M1.43815 5.48728C3.30809 5.26742 5.50892 6.40217 6.5502 7.89792C7.2243 8.86671 7.85415 10.6192 6.25849 11.0497C3.99454 11.6596 0.999872 9.77735 0.219096 7.70288C-0.253287 6.44685 -0.00947628 5.65749 1.43815 5.48728Z" fill="#0B4915"/>
<path d="M8.40122 8.95317C8.60803 8.917 8.81991 9.02126 8.91352 9.20423C8.97955 10.983 8.62036 12.7971 9.90618 14.2624C11.2058 15.744 13.2716 14.8475 15.011 15.1596C15.4572 15.3078 15.4529 15.6773 15.1692 16L1.77552 15.9688C1.3162 15.339 1.84881 15.1539 2.43149 15.1099C3.63022 15.0198 5.45808 15.3957 6.45509 14.7872C7.4521 14.1787 7.97891 12.8929 8.06018 11.817C8.11678 11.0702 7.92739 9.93118 8.05873 9.26239C8.08848 9.10991 8.24957 8.97941 8.40122 8.95246V8.95317Z" fill="#0B4915"/>
<path d="M5.27681 5.16097C4.57005 5.80352 3.07526 4.72835 2.61666 4.15317C2.15807 3.57799 1.43607 1.67657 2.51 1.49998C3.79871 1.28792 5.0838 2.67232 5.38348 3.78934C5.48434 4.16594 5.59899 4.86806 5.27681 5.16097Z" fill="#0B4915"/>
<path d="M13.8428 1.51211C15.8216 1.17949 14.903 3.53977 14.1541 4.36956C13.0272 5.61779 10.8917 5.9497 11.6827 3.58516C11.9693 2.72701 12.8952 1.67169 13.8436 1.51282L13.8428 1.51211Z" fill="#0B4915"/>
<path d="M14.5713 5.48651C16.8788 5.25034 17.6385 6.44112 16.4318 8.36878C15.3971 10.0227 13.239 11.3213 11.2145 11.139C9.03766 10.9432 9.67403 8.82339 10.5978 7.63119C11.4707 6.50495 13.1316 5.63331 14.5713 5.48651ZM12.1034 7.81984C11.2798 7.92906 10.8902 9.21062 11.6876 9.12622C12.5577 9.03402 13.0431 7.69502 12.1034 7.81984Z" fill="#0B4915"/>
</g>
<defs>
<clipPath id="clip0_112_765">
<rect width="17" height="16" fill="white"/>
</clipPath>
</defs>
</svg>
